<svg width="20" height="20" viewBox="0 0 20 20" fill="none" xmlns="http://www.w3.org/2000/svg">
<path d="M19.9437 5.8767C19.8957 4.81185 19.7237 4.08327 19.4796 3.44676C19.2236 2.79023 18.8835 2.22978 18.3274 1.67734C17.7713 1.1249 17.2152 0.776621 16.559 0.52442C15.9229 0.276221 15.1948 0.108086 14.1305 0.060048C13.0623 0.0120096 12.7223 0 10.0097 0C7.29317 0 6.95311 0.0120096 5.88889 0.060048C4.82468 0.108086 4.09654 0.280224 3.46041 0.52442C2.80028 0.780625 2.24016 1.1209 1.68805 1.67734C1.13594 2.23379 0.787874 2.79023 0.535824 3.44676C0.291775 4.08327 0.11974 4.81185 0.0717308 5.8767C0.0237211 6.94556 0.0117188 7.28583 0.0117188 10C0.0117188 12.7182 0.0237211 13.0584 0.0717308 14.1233C0.11974 15.1882 0.291775 15.9167 0.535824 16.5532C0.791875 17.2098 1.13194 17.7702 1.68805 18.3227C2.24016 18.8791 2.80028 19.2234 3.45641 19.4756C4.09253 19.7238 4.82068 19.8919 5.88489 19.94C6.95311 19.988 7.29317 20 10.0057 20C12.7223 20 13.0623 19.988 14.1265 19.94C15.1908 19.8919 15.9189 19.7198 16.555 19.4756C17.2112 19.2194 17.7713 18.8791 18.3234 18.3227C18.8755 17.7662 19.2236 17.2098 19.4756 16.5532C19.7237 15.9167 19.8917 15.1882 19.9397 14.1233C19.9877 13.0544 19.9997 12.7142 19.9997 10C19.9997 7.28583 19.9917 6.94155 19.9437 5.8767ZM18.1473 14.0432C18.1033 15.02 17.9393 15.5524 17.8033 15.9007C17.6232 16.3651 17.4032 16.7014 17.0511 17.0536C16.6991 17.4059 16.367 17.6181 15.8989 17.8062C15.5468 17.9424 15.0147 18.1065 14.0425 18.1505C12.9903 18.1986 12.6743 18.2106 10.0017 18.2106C7.32918 18.2106 7.01312 18.1986 5.96091 18.1505C4.98471 18.1065 4.45261 17.9424 4.10454 17.8062C3.64044 17.6261 3.30438 17.4059 2.95231 17.0536C2.60024 16.7014 2.38819 16.3691 2.20016 15.9007C2.06413 15.5484 1.9001 15.016 1.85609 14.0432C1.80808 12.9904 1.79608 12.6741 1.79608 10C1.79608 7.32586 1.80808 7.00961 1.85609 5.95677C1.9001 4.97998 2.06413 4.44756 2.20016 4.09928C2.38019 3.63491 2.60024 3.29864 2.95231 2.94636C3.30438 2.59408 3.63644 2.38191 4.10454 2.19376C4.45661 2.05765 4.98871 1.89352 5.96091 1.84948C7.01312 1.80144 7.32918 1.78943 10.0017 1.78943C12.6743 1.78943 12.9903 1.80144 14.0425 1.84948C15.0187 1.89352 15.5508 2.05765 15.8989 2.19376C16.363 2.3739 16.6991 2.59408 17.0511 2.94636C17.4032 3.29864 17.6152 3.63091 17.8033 4.09928C17.9393 4.45156 18.1033 4.98399 18.1473 5.95677C18.1954 7.00961 18.2074 7.32586 18.2074 10C18.2074 12.6741 18.1914 12.9904 18.1473 14.0432Z" fill="url(#paint0_linear_568_743)"/>
<path d="M10.0023 4.86035C7.16169 4.86035 4.86523 7.16219 4.86523 10.0005C4.86523 12.8427 7.16569 15.1406 10.0023 15.1406C12.8388 15.1406 15.1393 12.8347 15.1393 10.0005C15.1393 7.15819 12.8428 4.86035 10.0023 4.86035ZM10.0023 13.3351C8.16189 13.3351 6.66959 11.8419 6.66959 10.0005C6.66959 8.15899 8.16189 6.6658 10.0023 6.6658C11.8426 6.6658 13.3349 8.15899 13.3349 10.0005C13.3349 11.8419 11.8426 13.3351 10.0023 13.3351Z" fill="url(#paint1_linear_568_743)"/>
<path d="M15.3379 5.86091C16.0008 5.86091 16.5382 5.32322 16.5382 4.65995C16.5382 3.99667 16.0008 3.45898 15.3379 3.45898C14.6751 3.45898 14.1377 3.99667 14.1377 4.65995C14.1377 5.32322 14.6751 5.86091 15.3379 5.86091Z" fill="#BC30A0"/>
<defs>
<linearGradient id="paint0_linear_568_743" x1="16.9126" y1="1.52934" x2="2.44391" y2="19.2563" gradientUnits="userSpaceOnUse">
<stop stop-color="#AE3DAE"/>
<stop offset="0.0468721" stop-color="#B23BA6"/>
<stop offset="0.1216" stop-color="#BD368E"/>
<stop offset="0.2148" stop-color="#CE2E69"/>
<stop offset="0.3216" stop-color="#E62335"/>
<stop offset="0.418" stop-color="#FF1800"/>
</linearGradient>
<linearGradient id="paint1_linear_568_743" x1="12.4521" y1="5.87785" x2="7.196" y2="14.71" gradientUnits="userSpaceOnUse">
<stop stop-color="#E12F6A"/>
<stop offset="0.1705" stop-color="#EA3751"/>
<stop offset="0.3563" stop-color="#F13D3E"/>
<stop offset="0.5467" stop-color="#F64133"/>
<stop offset="0.7469" stop-color="#F7422F"/>
<stop offset="0.7946" stop-color="#F74C2F"/>
<stop offset="0.8743" stop-color="#F7652F"/>
<stop offset="0.9757" stop-color="#F78F2E"/>
<stop offset="1" stop-color="#F79A2E"/>
</linearGradient>
</defs>
</svg>
