<svg width="20" height="16" viewBox="0 0 20 16" fill="none" xmlns="http://www.w3.org/2000/svg">
<path d="M17.5485 3.98396C17.5562 4.15996 17.5562 4.32796 17.5562 4.50396C17.5639 9.83998 13.6435 16 6.47417 16C4.35963 16 2.28367 15.368 0.500977 14.184C0.809669 14.224 1.11836 14.24 1.42705 14.24C3.17888 14.24 4.8844 13.632 6.2658 12.504C4.59886 12.472 3.13258 11.344 2.62323 9.69598C3.20975 9.81598 3.8117 9.79198 4.38278 9.62398C2.56921 9.25598 1.26499 7.59997 1.25727 5.67197C1.25727 5.65597 1.25727 5.63997 1.25727 5.62397C1.79748 5.93597 2.40715 6.11197 3.02453 6.12797C1.31901 4.94396 0.786517 2.58396 1.82064 0.735951C3.80398 3.26396 6.72112 4.79196 9.85435 4.95996C9.53794 3.55996 9.97011 2.08796 10.9811 1.09595C12.5477 -0.432053 15.0172 -0.352052 16.4989 1.27195C17.371 1.09595 18.2122 0.759951 18.9762 0.28795C18.6829 1.22395 18.0733 2.01596 17.263 2.51996C18.0347 2.42396 18.791 2.20796 19.501 1.88795C18.9762 2.70396 18.3125 3.40796 17.5485 3.98396Z" fill="#1D9BF0"/>
</svg>
