<svg width="11" height="11" viewBox="0 0 11 11" fill="none" xmlns="http://www.w3.org/2000/svg">
<path d="M5.62846 3.11285L8.20507 7.57561M8.07015 7.34117L1.71858 8.816L1.31177 8.11135L5.76482 3.34816M3.10028 8.4948L3.45002 9.10054C3.5769 9.31801 3.78496 9.47618 4.02845 9.54023C4.27192 9.60422 4.53088 9.56895 4.74833 9.44205C4.96579 9.31521 5.12394 9.10715 5.18799 8.86363C5.25204 8.62017 5.21674 8.36122 5.08986 8.14374L5.03385 8.04676M5.80368 1.83723V1M9.01139 5.04503H9.84862M1.75926 5.04503H2.59649M2.94309 2.18476L3.5351 2.77677M8.07195 2.77669L8.66393 2.18468" stroke="#FF7A0E" stroke-width="1.02857" stroke-linecap="round" stroke-linejoin="round"/>
</svg>
