<svg width="11" height="11" viewBox="0 0 11 11" fill="none" xmlns="http://www.w3.org/2000/svg">
<path d="M1.9125 6.8625V5.5125C1.9125 5.39315 1.95991 5.27869 2.0443 5.1943C2.12869 5.10991 2.24315 5.0625 2.3625 5.0625H7.7625C7.88185 5.0625 7.99631 5.10991 8.0807 5.1943C8.16509 5.27869 8.2125 5.39315 8.2125 5.5125V6.8625M5.0625 5.0625V3.2625M7.3125 6.8625H9.1125C9.36103 6.8625 9.5625 7.06397 9.5625 7.3125V9.1125C9.5625 9.36103 9.36103 9.5625 9.1125 9.5625H7.3125C7.06397 9.5625 6.8625 9.36103 6.8625 9.1125V7.3125C6.8625 7.06397 7.06397 6.8625 7.3125 6.8625ZM1.0125 6.8625H2.8125C3.06103 6.8625 3.2625 7.06397 3.2625 7.3125V9.1125C3.2625 9.36103 3.06103 9.5625 2.8125 9.5625H1.0125C0.763972 9.5625 0.5625 9.36103 0.5625 9.1125V7.3125C0.5625 7.06397 0.763972 6.8625 1.0125 6.8625ZM4.1625 0.5625H5.9625C6.21103 0.5625 6.4125 0.763972 6.4125 1.0125V2.8125C6.4125 3.06103 6.21103 3.2625 5.9625 3.2625H4.1625C3.91397 3.2625 3.7125 3.06103 3.7125 2.8125V1.0125C3.7125 0.763972 3.91397 0.5625 4.1625 0.5625Z" stroke="#8E8E8E" stroke-width="1.125" stroke-linecap="round" stroke-linejoin="round"/>
</svg>
