<svg width="10" height="11" viewBox="0 0 10 11" fill="none" xmlns="http://www.w3.org/2000/svg">
<path d="M8.6625 3.0375V2.3625C8.6625 2.12381 8.56768 1.89489 8.3989 1.7261C8.23011 1.55732 8.0012 1.4625 7.7625 1.4625H1.4625C1.22381 1.4625 0.994887 1.55732 0.826104 1.7261C0.657321 1.89489 0.5625 2.12381 0.5625 2.3625V8.6625C0.5625 8.90119 0.657321 9.13011 0.826104 9.2989C0.994887 9.46768 1.22381 9.5625 1.4625 9.5625H3.0375M6.4125 0.5625V2.3625M2.8125 0.5625V2.3625M0.5625 4.1625H2.8125M7.0875 7.5375L6.4125 6.9975V5.9625M9.1125 6.8625C9.1125 8.35367 7.90367 9.5625 6.4125 9.5625C4.92133 9.5625 3.7125 8.35367 3.7125 6.8625C3.7125 5.37133 4.92133 4.1625 6.4125 4.1625C7.90367 4.1625 9.1125 5.37133 9.1125 6.8625Z" stroke="#8E8E8E" stroke-width="1.125" stroke-linecap="round" stroke-linejoin="round"/>
</svg>
