<svg width="10" height="12" viewBox="0 0 10 12" fill="none" xmlns="http://www.w3.org/2000/svg">
<path d="M1.48889 0.666992H2.82288C3.19081 0.667168 3.48872 0.965076 3.48889 1.33301V10.667C3.48872 11.0349 3.19081 11.3328 2.82288 11.333H1.48889C1.12096 11.3328 0.823052 11.0349 0.822876 10.667V1.33301C0.823052 0.965076 1.12096 0.667168 1.48889 0.666992ZM6.82288 0.666992H8.15588C8.52396 0.666992 8.8227 0.964968 8.82288 1.33301V10.667C8.8227 11.035 8.52396 11.333 8.15588 11.333H6.82288C6.45479 11.333 6.15606 11.035 6.15588 10.667V1.33301C6.15606 0.964968 6.45479 0.666992 6.82288 0.666992Z" stroke="#8E8E8E" stroke-width="1.33333"/>
</svg>
