<svg width="11" height="11" viewBox="0 0 11 11" fill="none" xmlns="http://www.w3.org/2000/svg">
<path d="M4.26521 2.94158V1M6.59348 2.94158V1M3.87445 4.49647H2.31956M8.53912 4.49647H6.98423M8.92581 4.49647C8.92473 3.56948 8.55601 2.68076 7.90053 2.02528C7.24505 1.3698 6.35633 1.00108 5.42934 1C4.50235 1.00108 3.61364 1.3698 2.95816 2.02528C2.30267 2.68076 1.93395 3.56948 1.93287 4.49647C1.81964 4.49594 1.70766 4.52028 1.60487 4.56778C1.50207 4.61528 1.41096 4.68477 1.33797 4.77135C1.26498 4.85793 1.2119 4.95948 1.18246 5.06882C1.15303 5.17817 1.14797 5.29265 1.16764 5.40417C1.20653 5.59006 1.3092 5.75651 1.45786 5.8747C1.60653 5.99289 1.79184 6.05538 1.98172 6.05136H8.90139C9.09127 6.05538 9.27658 5.99289 9.42525 5.8747C9.57391 5.75651 9.67658 5.59006 9.71547 5.40417C9.73558 5.29058 9.73003 5.17394 9.69922 5.06278C9.66841 4.95162 9.61313 4.84876 9.53742 4.76173C9.46171 4.6747 9.36749 4.60571 9.26166 4.55982C9.15584 4.51392 9.04108 4.49227 8.92581 4.49647ZM2.31956 6.05136H8.53912V6.4584C8.53375 7.27963 8.20374 8.0654 7.62112 8.6442C7.03851 9.223 6.25059 9.54785 5.42934 9.54783C4.60458 9.54783 3.81359 9.22019 3.23039 8.63699C2.6472 8.0538 2.31956 7.26281 2.31956 6.43805V6.03101V6.05136Z" stroke="#F2A20D" stroke-width="1.02857" stroke-miterlimit="10"/>
</svg>
