<svg width="12" height="12" viewBox="0 0 12 12" fill="none" xmlns="http://www.w3.org/2000/svg">
<path d="M11.2857 2.92857H5.5M7.42857 9.35714H1.64286M7.42857 9.35714C7.42857 10.4223 8.29202 11.2857 9.35714 11.2857C10.4223 11.2857 11.2857 10.4223 11.2857 9.35714C11.2857 8.29202 10.4223 7.42857 9.35714 7.42857C8.29202 7.42857 7.42857 8.29202 7.42857 9.35714ZM4.85714 2.92857C4.85714 3.99369 3.99369 4.85714 2.92857 4.85714C1.86345 4.85714 1 3.99369 1 2.92857C1 1.86345 1.86345 1 2.92857 1C3.99369 1 4.85714 1.86345 4.85714 2.92857Z" stroke="#8E8E8E" stroke-width="1.28571" stroke-linecap="round" stroke-linejoin="round"/>
</svg>
