<svg width="18" height="18" viewBox="0 0 18 18" fill="none" xmlns="http://www.w3.org/2000/svg">
<g filter="url(#filter0_f_485_3025)">
<path d="M-0.132568 9.06055C-0.123023 10.4942 0.285482 11.9733 0.903823 13.1674V13.1756C1.3506 14.0427 1.96122 14.7277 2.65671 15.4064L6.85727 13.8737C6.06255 13.47 5.94128 13.2227 5.3716 12.7713C4.78943 12.1843 4.35554 11.5103 4.08532 10.7201H4.07444L4.08532 10.7119C3.90755 10.1901 3.89002 9.6362 3.88346 9.06055H-0.132568Z" fill="url(#paint0_radial_485_3025)"/>
</g>
<g filter="url(#filter1_f_485_3025)">
<path d="M9.19156 -0.0654297C8.77638 1.39317 8.93513 2.81097 9.19156 3.63591C9.671 3.63626 10.1329 3.69341 10.5708 3.80727C11.5748 4.06828 12.2849 4.58236 12.72 4.98898L15.4129 2.35189C13.8176 0.889194 11.8978 -0.0631251 9.19156 -0.0654297Z" fill="url(#paint1_radial_485_3025)"/>
</g>
<g filter="url(#filter2_f_485_3025)">
<path d="M9.18231 -0.0771484C7.14583 -0.0771925 5.26566 0.557318 3.72493 1.62966C3.15285 2.02783 2.62787 2.48777 2.1604 2.99924C2.03794 4.14814 3.07714 5.56025 5.13508 5.54856C6.13358 4.38707 7.61035 3.63559 9.25399 3.63559C9.25549 3.63559 9.25695 3.63572 9.25845 3.63572L9.19132 -0.0768856C9.18829 -0.0768876 9.18535 -0.0771484 9.18231 -0.0771484Z" fill="url(#paint2_radial_485_3025)"/>
</g>
<g filter="url(#filter3_f_485_3025)">
<path d="M15.904 9.4761L14.0863 10.7248C14.0065 11.2145 13.8273 11.6963 13.565 12.1355C13.2645 12.6388 12.893 13.022 12.5123 13.3138C11.374 14.186 10.0477 14.3656 9.12436 14.3663C8.17003 15.9918 8.00272 16.8059 9.19148 18.1177C10.6625 18.1167 11.9665 17.8511 13.1168 17.3539C13.9483 16.9944 14.685 16.5256 15.352 15.9231C16.2333 15.127 16.9237 14.1422 17.3948 13.0092C17.8659 11.8762 18.1178 10.5951 18.1178 9.20605L15.904 9.4761Z" fill="url(#paint3_radial_485_3025)"/>
</g>
<g filter="url(#filter4_f_485_3025)">
<path d="M9.05737 7.19873V10.9219H17.8028C17.8797 10.412 18.1341 9.75216 18.1341 9.20593C18.1341 8.5676 18.07 7.78791 17.9613 7.19873H9.05737Z" fill="#3086FF"/>
</g>
<g filter="url(#filter5_f_485_3025)">
<path d="M2.20277 2.86768C1.66309 3.45816 1.20204 4.11908 0.836474 4.83386C0.209309 6.05629 -0.134094 7.54242 -0.134094 8.99897C-0.134094 9.01949 -0.132395 9.03957 -0.132258 9.06007C0.145494 9.59262 3.70439 9.49064 3.88377 9.06007C3.88354 9.03998 3.88128 9.02039 3.88128 9.00025C3.88128 8.40284 3.98221 7.96251 4.16618 7.42241C4.39312 6.75621 4.74847 6.14272 5.20286 5.61415C5.30587 5.48265 5.58062 5.19994 5.66078 5.03036C5.69132 4.96577 5.60535 4.92952 5.60054 4.90678C5.59516 4.88136 5.47989 4.9018 5.45407 4.88286C5.37208 4.82272 5.20972 4.79132 5.11112 4.7634C4.9004 4.70373 4.55116 4.57215 4.35718 4.43575C3.74402 4.00459 2.78713 3.48957 2.20277 2.86768Z" fill="url(#paint4_radial_485_3025)"/>
</g>
<g filter="url(#filter6_f_485_3025)">
<path d="M4.36977 4.90961C5.79163 5.77091 6.20053 4.47487 7.14586 4.06931L5.50142 0.65918C4.89651 0.913425 4.32498 1.2293 3.79469 1.59838C3.00276 2.14956 2.30341 2.82217 1.72571 3.5876L4.36977 4.90961Z" fill="url(#paint5_radial_485_3025)"/>
</g>
<g filter="url(#filter7_f_485_3025)">
<path d="M4.94889 13.6101C3.04023 14.2991 2.74143 14.3238 2.56573 15.5067C2.90147 15.8343 3.2622 16.1374 3.64552 16.4122C4.67411 17.1495 6.65265 18.1314 9.18303 18.1314C9.186 18.1314 9.18884 18.1312 9.19182 18.1312V14.3006C9.1899 14.3006 9.1877 14.3007 9.18578 14.3007C8.23824 14.3007 7.48107 14.0519 6.70472 13.6191C6.51331 13.5124 6.16604 13.7989 5.9895 13.6708C5.74602 13.4941 5.16007 13.823 4.94889 13.6101Z" fill="url(#paint6_radial_485_3025)"/>
</g>
<g opacity="0.5" filter="url(#filter8_f_485_3025)">
<path d="M8.07336 14.1797V18.0646C8.42741 18.106 8.79586 18.1312 9.18239 18.1312C9.56986 18.1312 9.94472 18.1113 10.309 18.0747V14.2059C9.90078 14.2757 9.51632 14.3005 9.18514 14.3005C8.80371 14.3005 8.43278 14.2561 8.07336 14.1797Z" fill="url(#paint7_linear_485_3025)"/>
</g>
<defs>
<filter id="filter0_f_485_3025" x="-0.602648" y="8.59047" width="7.93003" height="7.28586" filterUnits="userSpaceOnUse" color-interpolation-filters="sRGB">
<feFlood flood-opacity="0" result="BackgroundImageFix"/>
<feBlend mode="normal" in="SourceGraphic" in2="BackgroundImageFix" result="shape"/>
<feGaussianBlur stdDeviation="0.23504" result="effect1_foregroundBlur_485_3025"/>
</filter>
<filter id="filter1_f_485_3025" x="8.4662" y="-0.535509" width="7.41678" height="5.99436" filterUnits="userSpaceOnUse" color-interpolation-filters="sRGB">
<feFlood flood-opacity="0" result="BackgroundImageFix"/>
<feBlend mode="normal" in="SourceGraphic" in2="BackgroundImageFix" result="shape"/>
<feGaussianBlur stdDeviation="0.23504" result="effect1_foregroundBlur_485_3025"/>
</filter>
<filter id="filter2_f_485_3025" x="1.68062" y="-0.547228" width="8.04789" height="6.56614" filterUnits="userSpaceOnUse" color-interpolation-filters="sRGB">
<feFlood flood-opacity="0" result="BackgroundImageFix"/>
<feBlend mode="normal" in="SourceGraphic" in2="BackgroundImageFix" result="shape"/>
<feGaussianBlur stdDeviation="0.23504" result="effect1_foregroundBlur_485_3025"/>
</filter>
<filter id="filter3_f_485_3025" x="7.88374" y="8.73598" width="10.7042" height="9.85178" filterUnits="userSpaceOnUse" color-interpolation-filters="sRGB">
<feFlood flood-opacity="0" result="BackgroundImageFix"/>
<feBlend mode="normal" in="SourceGraphic" in2="BackgroundImageFix" result="shape"/>
<feGaussianBlur stdDeviation="0.23504" result="effect1_foregroundBlur_485_3025"/>
</filter>
<filter id="filter4_f_485_3025" x="8.58729" y="6.72865" width="10.0169" height="4.6633" filterUnits="userSpaceOnUse" color-interpolation-filters="sRGB">
<feFlood flood-opacity="0" result="BackgroundImageFix"/>
<feBlend mode="normal" in="SourceGraphic" in2="BackgroundImageFix" result="shape"/>
<feGaussianBlur stdDeviation="0.23504" result="effect1_foregroundBlur_485_3025"/>
</filter>
<filter id="filter5_f_485_3025" x="-0.604174" y="2.3976" width="6.74155" height="7.49485" filterUnits="userSpaceOnUse" color-interpolation-filters="sRGB">
<feFlood flood-opacity="0" result="BackgroundImageFix"/>
<feBlend mode="normal" in="SourceGraphic" in2="BackgroundImageFix" result="shape"/>
<feGaussianBlur stdDeviation="0.23504" result="effect1_foregroundBlur_485_3025"/>
</filter>
<filter id="filter6_f_485_3025" x="-1.57914" y="-2.64567" width="12.0299" height="11.1497" filterUnits="userSpaceOnUse" color-interpolation-filters="sRGB">
<feFlood flood-opacity="0" result="BackgroundImageFix"/>
<feBlend mode="normal" in="SourceGraphic" in2="BackgroundImageFix" result="shape"/>
<feGaussianBlur stdDeviation="1.65243" result="effect1_foregroundBlur_485_3025"/>
</filter>
<filter id="filter7_f_485_3025" x="2.09566" y="13.1246" width="7.56626" height="5.47678" filterUnits="userSpaceOnUse" color-interpolation-filters="sRGB">
<feFlood flood-opacity="0" result="BackgroundImageFix"/>
<feBlend mode="normal" in="SourceGraphic" in2="BackgroundImageFix" result="shape"/>
<feGaussianBlur stdDeviation="0.23504" result="effect1_foregroundBlur_485_3025"/>
</filter>
<filter id="filter8_f_485_3025" x="7.60328" y="13.7096" width="3.17575" height="4.89182" filterUnits="userSpaceOnUse" color-interpolation-filters="sRGB">
<feFlood flood-opacity="0" result="BackgroundImageFix"/>
<feBlend mode="normal" in="SourceGraphic" in2="BackgroundImageFix" result="shape"/>
<feGaussianBlur stdDeviation="0.23504" result="effect1_foregroundBlur_485_3025"/>
</filter>
<radialGradient id="paint0_radial_485_3025" cx="0" cy="0" r="1" gradientTransform="matrix(-0.374041 -8.96393 13.4483 -0.537918 6.77318 15.2714)" gradientUnits="userSpaceOnUse">
<stop offset="0.141612" stop-color="#1ABD4D"/>
<stop offset="0.247515" stop-color="#6EC30D"/>
<stop offset="0.311547" stop-color="#8AC502"/>
<stop offset="0.366013" stop-color="#A2C600"/>
<stop offset="0.445673" stop-color="#C8C903"/>
<stop offset="0.540305" stop-color="#EBCB03"/>
<stop offset="0.615636" stop-color="#F7CD07"/>
<stop offset="0.699345" stop-color="#FDCD04"/>
<stop offset="0.771242" stop-color="#FDCE05"/>
<stop offset="0.860566" stop-color="#FFCE0A"/>
</radialGradient>
<radialGradient id="paint1_radial_485_3025" cx="0" cy="0" r="1" gradientTransform="matrix(6.35225 -1.52668e-05 -8.92834e-06 8.03195 15.161 4.79817)" gradientUnits="userSpaceOnUse">
<stop offset="0.408458" stop-color="#FB4E5A"/>
<stop offset="1" stop-color="#FF4540"/>
</radialGradient>
<radialGradient id="paint2_radial_485_3025" cx="0" cy="0" r="1" gradientTransform="matrix(-8.89996 4.82619 6.68907 11.8245 11.6917 -1.2398)" gradientUnits="userSpaceOnUse">
<stop offset="0.231273" stop-color="#FF4541"/>
<stop offset="0.311547" stop-color="#FF4540"/>
<stop offset="0.457516" stop-color="#FF4640"/>
<stop offset="0.540305" stop-color="#FF473F"/>
<stop offset="0.699346" stop-color="#FF5138"/>
<stop offset="0.771242" stop-color="#FF5B33"/>
<stop offset="0.860566" stop-color="#FF6C29"/>
<stop offset="1" stop-color="#FF8C18"/>
</radialGradient>
<radialGradient id="paint3_radial_485_3025" cx="0" cy="0" r="1" gradientTransform="matrix(-16.1403 -20.6285 -7.77723 5.83314 9.3238 16.9527)" gradientUnits="userSpaceOnUse">
<stop offset="0.131546" stop-color="#0CBA65"/>
<stop offset="0.209784" stop-color="#0BB86D"/>
<stop offset="0.297297" stop-color="#09B479"/>
<stop offset="0.396257" stop-color="#08AD93"/>
<stop offset="0.477124" stop-color="#0AA6A9"/>
<stop offset="0.568425" stop-color="#0D9CC6"/>
<stop offset="0.667385" stop-color="#1893DD"/>
<stop offset="0.768727" stop-color="#258BF1"/>
<stop offset="0.858506" stop-color="#3086FF"/>
</radialGradient>
<radialGradient id="paint4_radial_485_3025" cx="0" cy="0" r="1" gradientTransform="matrix(-1.14221 9.63913 13.6126 1.54626 8.40323 1.62277)" gradientUnits="userSpaceOnUse">
<stop offset="0.366013" stop-color="#FF4E3A"/>
<stop offset="0.457516" stop-color="#FF8A1B"/>
<stop offset="0.540305" stop-color="#FFA312"/>
<stop offset="0.615636" stop-color="#FFB60C"/>
<stop offset="0.771242" stop-color="#FFCD0A"/>
<stop offset="0.860566" stop-color="#FECF0A"/>
<stop offset="0.915033" stop-color="#FECF08"/>
<stop offset="1" stop-color="#FDCD01"/>
</radialGradient>
<radialGradient id="paint5_radial_485_3025" cx="0" cy="0" r="1" gradientTransform="matrix(-3.30159 3.57508 -10.2992 -9.11745 6.7964 1.52307)" gradientUnits="userSpaceOnUse">
<stop offset="0.315904" stop-color="#FF4C3C"/>
<stop offset="0.603818" stop-color="#FF692C"/>
<stop offset="0.726837" stop-color="#FF7825"/>
<stop offset="0.884534" stop-color="#FF8D1B"/>
<stop offset="1" stop-color="#FF9F13"/>
</radialGradient>
<radialGradient id="paint6_radial_485_3025" cx="0" cy="0" r="1" gradientTransform="matrix(-8.89996 -4.82619 6.68907 -11.8245 11.6922 19.2394)" gradientUnits="userSpaceOnUse">
<stop offset="0.231273" stop-color="#0FBC5F"/>
<stop offset="0.311547" stop-color="#0FBC5F"/>
<stop offset="0.366013" stop-color="#0FBC5E"/>
<stop offset="0.457516" stop-color="#0FBC5D"/>
<stop offset="0.540305" stop-color="#12BC58"/>
<stop offset="0.699346" stop-color="#28BF3C"/>
<stop offset="0.771242" stop-color="#38C02B"/>
<stop offset="0.860566" stop-color="#52C218"/>
<stop offset="0.915033" stop-color="#67C30F"/>
<stop offset="1" stop-color="#86C504"/>
</radialGradient>
<linearGradient id="paint7_linear_485_3025" x1="8.07336" y1="16.1554" x2="10.309" y2="16.1554" gradientUnits="userSpaceOnUse">
<stop stop-color="#0FBC5C"/>
<stop offset="1" stop-color="#0CBA65"/>
</linearGradient>
</defs>
</svg>
