<svg width="11" height="10" viewBox="0 0 11 10" fill="none" xmlns="http://www.w3.org/2000/svg">
<path d="M9.57143 3.35692V5.49977M2.28571 4.64263V6.83906C2.28571 8.08963 4.29743 8.71406 5.28571 8.71406C6.274 8.71406 8.28571 8.08963 8.28571 6.83906V4.64263M6.23586 1.21406C5.93894 1.07312 5.61438 1 5.28571 1C4.95704 1 4.63249 1.07312 4.33557 1.21406L1.468 2.55849C0.844 2.85077 0.844 3.86306 1.468 4.15535L4.33514 5.49977C4.63212 5.64078 4.95675 5.71394 5.2855 5.71394C5.61425 5.71394 5.93888 5.64078 6.23586 5.49977L9.10343 4.15535C9.72743 3.86306 9.72743 2.85077 9.10343 2.55849L6.23586 1.21406Z" stroke="#B6F113" stroke-width="1.02857" stroke-linecap="round" stroke-linejoin="round"/>
</svg>
