<svg width="11" height="3" viewBox="0 0 11 3" fill="none" xmlns="http://www.w3.org/2000/svg">
<path d="M5.28571 2.07143C5.58158 2.07143 5.82143 1.83158 5.82143 1.53571C5.82143 1.23985 5.58158 1 5.28571 1C4.98985 1 4.75 1.23985 4.75 1.53571C4.75 1.83158 4.98985 2.07143 5.28571 2.07143Z" stroke="#8E8E8E" stroke-width="1.02857" stroke-linecap="round" stroke-linejoin="round"/>
<path d="M9.03571 2.07143C9.33158 2.07143 9.57143 1.83158 9.57143 1.53571C9.57143 1.23985 9.33158 1 9.03571 1C8.73985 1 8.5 1.23985 8.5 1.53571C8.5 1.83158 8.73985 2.07143 9.03571 2.07143Z" stroke="#8E8E8E" stroke-width="1.02857" stroke-linecap="round" stroke-linejoin="round"/>
<path d="M1.53571 2.07143C1.83158 2.07143 2.07143 1.83158 2.07143 1.53571C2.07143 1.23985 1.83158 1 1.53571 1C1.23985 1 1 1.23985 1 1.53571C1 1.83158 1.23985 2.07143 1.53571 2.07143Z" stroke="#8E8E8E" stroke-width="1.02857" stroke-linecap="round" stroke-linejoin="round"/>
</svg>
