<svg width="14" height="14" viewBox="0 0 14 14" fill="none" xmlns="http://www.w3.org/2000/svg">
<path d="M7.15783 1C8.43065 1.00041 9.67036 1.40559 10.6977 2.15694C11.7251 2.9083 12.487 3.96692 12.8731 5.17975C13.2593 6.39258 13.2497 7.69679 12.8458 8.90383C12.442 10.1109 11.6647 11.1582 10.6264 11.8944C9.58811 12.6307 8.3426 13.0176 7.06991 12.9994C5.79722 12.9811 4.5633 12.5587 3.54654 11.793C2.52977 11.0273 1.78284 9.95812 1.41373 8.74C1.04461 7.52188 1.07243 6.21794 1.49316 5.01667L7.15783 7V1Z" fill="#8E8E8E"/>
<path d="M1.15784 7C1.15784 7.78793 1.31303 8.56815 1.61456 9.2961C1.91609 10.0241 2.35804 10.6855 2.9152 11.2426C3.47235 11.7998 4.13378 12.2417 4.86174 12.5433C5.58969 12.8448 6.36991 13 7.15784 13C7.94577 13 8.72598 12.8448 9.45394 12.5433C10.1819 12.2417 10.8433 11.7998 11.4005 11.2426C11.9576 10.6855 12.3996 10.0241 12.7011 9.2961C13.0026 8.56815 13.1578 7.78793 13.1578 7C13.1578 5.4087 12.5257 3.88258 11.4005 2.75736C10.2753 1.63214 8.74914 1 7.15784 1C5.56654 1 4.04041 1.63214 2.9152 2.75736C1.78998 3.88258 1.15784 5.4087 1.15784 7Z" stroke="#8E8E8E" stroke-width="1.28571" stroke-linecap="round" stroke-linejoin="round"/>
</svg>
