<svg width="14" height="14" viewBox="0 0 14 14" fill="none" xmlns="http://www.w3.org/2000/svg">
<path d="M5.6162 13C5.03186 12.865 4.47066 12.6418 3.95125 12.3376M8.3016 1C9.63635 1.31041 10.8281 2.07305 11.6816 3.16307C12.5352 4.25308 13 5.60589 13 7C13 8.39411 12.5352 9.74692 11.6816 10.8369C10.8281 11.927 9.63635 12.6896 8.3016 13M1.97681 10.4816C1.6106 9.93982 1.33245 9.34153 1.15307 8.7097M1 5.97459C1.10742 5.32517 1.31419 4.70992 1.60421 4.14595L1.71767 3.93745M3.53972 1.92697C4.16787 1.48666 4.87256 1.17207 5.6162 1" stroke="#8E8E8E" stroke-width="1.28571" stroke-linecap="round" stroke-linejoin="round"/>
</svg>
