<svg width="12" height="11" viewBox="0 0 12 11" fill="none" xmlns="http://www.w3.org/2000/svg">
<path d="M8.5625 9.5625C8.5625 8.50163 8.14107 7.48422 7.39093 6.73407C6.64078 5.98393 5.62337 5.5625 4.5625 5.5625M4.5625 5.5625C3.50163 5.5625 2.48422 5.98393 1.73407 6.73407C0.983927 7.48422 0.5625 8.50163 0.5625 9.5625M4.5625 5.5625C5.94321 5.5625 7.0625 4.44321 7.0625 3.0625C7.0625 1.68179 5.94321 0.5625 4.5625 0.5625C3.18179 0.5625 2.0625 1.68179 2.0625 3.0625C2.0625 4.44321 3.18179 5.5625 4.5625 5.5625ZM10.5625 9.0625C10.5625 7.3775 9.5625 5.8125 8.5625 5.0625C8.89121 4.81588 9.15406 4.49204 9.32778 4.11963C9.50151 3.74723 9.58076 3.33773 9.55851 2.9274C9.53626 2.51707 9.41321 2.11854 9.20024 1.7671C8.98727 1.41566 8.69095 1.12213 8.3375 0.9125" stroke="#8E8E8E" stroke-width="1.125" stroke-linecap="round" stroke-linejoin="round"/>
</svg>
